<svg xmlns="http://www.w3.org/2000/svg" class="icon icon-tabler icon-tabler-sitemap" width="24" height="24"
 viewBox="0 0 24 24" stroke-width="2" stroke="#929dab" fill="none" stroke-linecap="round" stroke-linejoin="round">
   <path stroke="none" d="M0 0h24v24H0z" fill="none"></path>
   <path d="M3 15m0 2a2 2 0 0 1 2 -2h2a2 2 0 0 1 2 2v2a2 2 0 0 1 -2 2h-2a2 2 0 0 1 -2 -2z"></path>
   <path d="M15 15m0 2a2 2 0 0 1 2 -2h2a2 2 0 0 1 2 2v2a2 2 0 0 1 -2 2h-2a2 2 0 0 1 -2 -2z"></path>
   <path d="M9 3m0 2a2 2 0 0 1 2 -2h2a2 2 0 0 1 2 2v2a2 2 0 0 1 -2 2h-2a2 2 0 0 1 -2 -2z"></path>
   <path d="M6 15v-1a2 2 0 0 1 2 -2h8a2 2 0 0 1 2 2v1"></path>
   <path d="M12 9l0 3"></path>
</svg>